<svg width="56" height="47" viewBox="0 0 56 47" fill="none" xmlns="http://www.w3.org/2000/svg">
<path d="M40.1754 41.8196C40.2479 42.3079 40.1264 42.8053 39.8369 43.2053C39.5474 43.6052 39.1129 43.876 38.6263 43.9597L38.323 43.9584C37.8815 43.9523 37.4561 43.7918 37.1207 43.5048C36.7852 43.2178 36.5607 42.8224 36.4863 42.3873L35.5995 36.9001C35.518 36.4109 35.6343 35.9093 35.9226 35.5057C36.2109 35.1022 36.6478 34.8297 37.137 34.7482C37.6262 34.6668 38.1278 34.783 38.5313 35.0713C38.9349 35.3597 39.2074 35.7965 39.2888 36.2857L40.1754 41.8196ZM27.9288 35.4676C27.4337 35.4655 26.9581 35.6601 26.6066 36.0087C26.255 36.3573 26.0563 36.8312 26.0542 37.3263L26.0226 44.793C26.0205 45.288 26.2151 45.7636 26.5637 46.1152C26.9123 46.4667 27.3863 46.6654 27.8813 46.6675C28.3764 46.6696 28.852 46.475 29.2036 46.1264C29.5551 45.7778 29.7538 45.3038 29.7559 44.8088L29.7876 37.3421C29.7897 36.8471 29.595 36.3714 29.2464 36.0199C28.8978 35.6683 28.4239 35.4697 27.9288 35.4676ZM18.7152 34.7051C18.4747 34.6607 18.2276 34.6645 17.9886 34.7165C17.7495 34.7684 17.5232 34.8675 17.3228 35.0078C17.1224 35.1481 16.9519 35.3269 16.8213 35.5338C16.6907 35.7406 16.6026 35.9714 16.5621 36.2127L15.6288 41.7155C15.5522 42.2033 15.6695 42.7016 15.9555 43.104C16.2416 43.5064 16.6738 43.7809 17.1597 43.8687L17.463 43.87C17.9045 43.8676 18.3312 43.7107 18.6692 43.4266C19.0071 43.1425 19.2349 42.749 19.313 42.3145L20.2462 36.835C20.3224 36.35 20.2044 35.8545 19.9179 35.4559C19.6313 35.0572 19.1992 34.7875 18.7152 34.7051ZM56 18.7863C55.9839 22.5663 52.8427 25.983 47.1625 28.3856C41.9964 30.5804 35.1779 31.7649 27.9446 31.7342C20.7113 31.7036 13.9031 30.4614 8.75588 28.2228C3.09618 25.7721 -0.0159353 22.3289 8.80241e-05 18.5489C0.00839643 16.5889 0.883993 13.6992 4.97889 10.9866C7.62307 9.2244 11.2692 7.79317 15.5432 6.8546C16.7391 4.98146 18.3403 3.4008 20.2288 2.22932C22.1172 1.05783 24.2447 0.325435 26.4541 0.0861898C28.6635 -0.153055 30.8984 0.106962 32.9938 0.847048C35.0893 1.58713 36.9918 2.78839 38.5608 4.36214C39.3605 5.15474 40.069 6.03432 40.6731 6.98446C50.3004 9.21864 56.022 13.583 56 18.7863ZM16.8151 15.0735L16.812 15.7968C16.8056 16.214 16.9427 16.6208 17.2004 16.949C17.4582 17.2772 17.8209 17.5068 18.2277 17.5995C21.4352 18.3184 24.713 18.6767 28 18.6676C31.2869 18.7045 34.5676 18.3741 37.781 17.6824C38.1887 17.5932 38.5533 17.3666 38.8138 17.0406C39.0743 16.7146 39.2149 16.309 39.212 15.8917L39.2158 14.9817C39.2285 13.0695 38.7461 11.1864 37.8156 9.51572C37.2934 8.60133 36.6537 7.75925 35.9129 7.01095C34.869 5.95676 33.6238 5.12336 32.2512 4.56034C30.8786 3.99732 29.4068 3.7162 27.9233 3.7337C21.8097 3.77779 16.8414 8.86681 16.8151 15.0735Z" fill="#1F487E"/>
</svg>
