<svg width="48" height="42" viewBox="0 0 48 42" fill="none" xmlns="http://www.w3.org/2000/svg">
<path d="M42.0231 5.57237L35.7165 5.54564L32.6399 0.887987C32.4762 0.633347 32.2509 0.424134 31.9849 0.27973C31.7188 0.135325 31.4206 0.0604015 31.1179 0.061899L16.5469 0.000132343C16.2442 -0.0039313 15.9454 0.068462 15.6781 0.210606C15.4109 0.352749 15.1838 0.560044 15.018 0.813288L11.902 5.44469L5.59543 5.41796C4.14806 5.41781 2.75927 5.98955 1.7315 7.00864C0.703731 8.02773 0.120244 9.41163 0.108116 10.8589L2.41749e-05 36.3583C-0.000117883 37.8057 0.571615 39.1945 1.59071 40.2222C2.6098 41.25 3.9937 41.8335 5.44101 41.8456L41.8687 42C43.316 42.0002 44.7048 41.4284 45.7326 40.4093C46.7604 39.3902 47.3438 38.0063 47.356 36.559L47.4641 11.0597C47.4642 9.61232 46.8925 8.22352 45.8734 7.19575C44.8543 6.16799 43.4704 5.5845 42.0231 5.57237ZM31.9321 22.833C31.9253 24.4541 31.4378 26.0367 30.5315 27.3808C29.6252 28.7248 28.3407 29.7699 26.8404 30.3839C25.3401 30.9979 23.6914 31.1532 22.1028 30.8303C20.5143 30.5073 19.0571 29.7205 17.9157 28.5693C16.7743 27.4182 15.9999 25.9545 15.6904 24.3632C15.3809 22.772 15.5502 21.1247 16.1769 19.6296C16.8036 18.1346 17.8595 16.859 19.2112 15.9641C20.5629 15.0692 22.1496 14.5952 23.7706 14.6021C25.9444 14.6113 28.0255 15.4837 29.5561 17.0273C31.0866 18.5709 31.9413 20.6593 31.9321 22.833Z" fill="#1F487E"/>
</svg>
