<svg width="48" height="42" viewBox="0 0 48 42" fill="none" xmlns="http://www.w3.org/2000/svg">
<path d="M41.9999 5.47833H35.6771L32.5728 0.821814C32.4076 0.567216 32.1808 0.358425 31.9135 0.214781C31.6462 0.0711372 31.3469 -0.00271162 31.0434 7.60954e-05H16.4348C16.1313 -0.00271162 15.832 0.0711372 15.5647 0.214781C15.2973 0.358425 15.0706 0.567216 14.9054 0.821814L11.8011 5.47833H5.47825C4.02718 5.48434 2.63725 6.06344 1.61118 7.08951C0.585109 8.11558 0.00600866 9.50551 0 10.9566V36.5218C0.00600866 37.9728 0.585109 39.3628 1.61118 40.3888C2.63725 41.4149 4.02718 41.994 5.47825 42H41.9999C43.451 41.994 44.8409 41.4149 45.867 40.3888C46.8931 39.3628 47.4722 37.9728 47.4782 36.5218V10.9566C47.4722 9.50551 46.8931 8.11558 45.867 7.08951C44.8409 6.06344 43.451 5.48434 41.9999 5.47833ZM31.9565 22.8261C31.9565 24.4514 31.4745 26.0401 30.5716 27.3915C29.6687 28.7428 28.3853 29.796 26.8837 30.418C25.3822 31.04 23.73 31.2027 22.136 30.8856C20.5419 30.5685 19.0778 29.7859 17.9285 28.6367C16.7793 27.4875 15.9967 26.0233 15.6796 24.4293C15.3625 22.8352 15.5253 21.183 16.1472 19.6815C16.7692 18.1799 17.8224 16.8966 19.1738 15.9936C20.5251 15.0907 22.1139 14.6088 23.7391 14.6088C25.9185 14.6088 28.0086 15.4745 29.5497 17.0156C31.0907 18.5566 31.9565 20.6467 31.9565 22.8261Z" fill="#1F487E"/>
</svg>
