<svg width="48" height="42" viewBox="0 0 48 42" fill="none" xmlns="http://www.w3.org/2000/svg">
<path d="M2.34146 42C1.72047 42 1.12491 41.7542 0.685799 41.3166C0.246689 40.879 0 40.2855 0 39.6667V2.33333C0 1.71449 0.246689 1.121 0.685799 0.683417C1.12491 0.245833 1.72047 0 2.34146 0H19.7011L24.384 4.66667H42.1463C42.7673 4.66667 43.3629 4.9125 43.802 5.35008C44.2411 5.78767 44.4878 6.38116 44.4878 7V14H4.68293V37.324L9.36585 18.6667H48L42.5912 40.2337C42.4644 40.7382 42.172 41.1861 41.7605 41.5061C41.349 41.8262 40.842 42 40.32 42H2.34146Z" fill="#1F487E"/>
</svg>
