<svg width="56" height="47" viewBox="0 0 56 47" fill="none" xmlns="http://www.w3.org/2000/svg">
<path d="M40.2733 41.7677C40.3479 42.2558 40.2285 42.7536 39.9407 43.1548C39.6529 43.556 39.2196 43.8286 38.7333 43.9144H38.43C37.9885 43.9101 37.5625 43.7514 37.2258 43.4659C36.8891 43.1803 36.663 42.7859 36.5867 42.351L35.6767 36.8677C35.5931 36.3788 35.7072 35.8768 35.9938 35.472C36.2804 35.0673 36.7161 34.7929 37.205 34.7094C37.6939 34.6258 38.1959 34.7399 38.6007 35.0265C39.0055 35.3132 39.2798 35.7488 39.3633 36.2377L40.2733 41.7677ZM28 35.4677C27.5049 35.4677 27.0301 35.6644 26.6801 36.0144C26.33 36.3645 26.1333 36.8393 26.1333 37.3344V44.801C26.1333 45.2961 26.33 45.7709 26.6801 46.121C27.0301 46.471 27.5049 46.6677 28 46.6677C28.4951 46.6677 28.9699 46.471 29.3199 46.121C29.67 45.7709 29.8667 45.2961 29.8667 44.801V37.3344C29.8667 36.8393 29.67 36.3645 29.3199 36.0144C28.9699 35.6644 28.4951 35.4677 28 35.4677ZM18.7833 34.7444C18.5426 34.7009 18.2956 34.7058 18.0567 34.7588C17.8179 34.8118 17.592 34.9117 17.3922 35.0529C17.1924 35.1941 17.0227 35.3736 16.893 35.581C16.7633 35.7884 16.6761 36.0196 16.6367 36.261L15.7267 41.7677C15.6521 42.2558 15.7715 42.7536 16.0593 43.1548C16.3471 43.556 16.7804 43.8286 17.2667 43.9144H17.57C18.0115 43.9101 18.4375 43.7514 18.7742 43.4659C19.1109 43.1803 19.337 42.7859 19.4133 42.351L20.3233 36.8677C20.3974 36.3824 20.2774 35.8874 19.9891 35.49C19.7009 35.0925 19.2677 34.8247 18.7833 34.7444ZM56 18.6677C56 22.4477 52.8733 25.8777 47.2033 28.3044C42.0467 30.521 35.2333 31.7344 28 31.7344C20.7667 31.7344 13.9533 30.521 8.79667 28.3044C3.12667 25.8777 0 22.4477 0 18.6677C0 16.7077 0.863334 13.8144 4.94667 11.0844C7.58333 9.31105 11.2233 7.86438 15.4933 6.90771C16.6812 5.02953 18.2757 3.44211 20.1592 2.26264C22.0426 1.08317 24.167 0.341761 26.3753 0.093154C28.5836 -0.155453 30.8196 0.0950872 32.9182 0.826279C35.0167 1.55747 36.9243 2.75064 38.5 4.31771C39.303 5.10692 40.0152 5.98348 40.6233 6.93105C50.26 9.12438 56 13.4644 56 18.6677ZM16.8 15.121V15.8444C16.7953 16.2616 16.9342 16.6678 17.1933 16.9949C17.4524 17.322 17.8161 17.5501 18.2233 17.641C21.4338 18.3464 24.713 18.6907 28 18.6677C31.287 18.6907 34.5662 18.3464 37.7767 17.641C38.1839 17.5501 38.5476 17.322 38.8067 16.9949C39.0658 16.6678 39.2047 16.2616 39.2 15.8444V14.9344C39.2045 13.0221 38.7142 11.1411 37.7767 9.47438C37.2506 8.56222 36.6073 7.72286 35.8633 6.97771C34.815 5.92797 33.5662 5.09985 32.1913 4.54266C30.8164 3.98547 29.3434 3.71059 27.86 3.73438C21.7467 3.80438 16.8 8.91438 16.8 15.121Z" fill="#1F487E"/>
</svg>
