<svg width="49" height="49" viewBox="0 0 49 49" fill="none" xmlns="http://www.w3.org/2000/svg">
<path d="M27.3269 13.1923C27.3269 13.7514 27.1611 14.298 26.8505 14.7629C26.5399 15.2277 26.0984 15.5901 25.5818 15.804C25.0653 16.018 24.4969 16.074 23.9485 15.9649C23.4001 15.8558 22.8964 15.5866 22.5011 15.1912C22.1057 14.7959 21.8365 14.2922 21.7274 13.7438C21.6183 13.1954 21.6743 12.627 21.8883 12.1105C22.1022 11.5939 22.4646 11.1524 22.9295 10.8418C23.3943 10.5312 23.9409 10.3654 24.5 10.3654C25.2498 10.3654 25.9688 10.6632 26.4989 11.1934C27.0291 11.7235 27.3269 12.4426 27.3269 13.1923ZM49 24.5C49 29.3456 47.5631 34.0825 44.871 38.1115C42.1789 42.1405 38.3525 45.2807 33.8758 47.135C29.399 48.9894 24.4728 49.4746 19.7203 48.5292C14.9678 47.5839 10.6023 45.2505 7.17589 41.8241C3.74951 38.3977 1.41611 34.0322 0.470772 29.2797C-0.474566 24.5272 0.0106155 19.601 1.86496 15.1243C3.71931 10.6475 6.85954 6.82109 10.8885 4.12899C14.9175 1.4369 19.6544 0 24.5 0C30.994 0.0124525 37.2184 2.59769 41.8104 7.18964C46.4023 11.7816 48.9876 18.006 49 24.5ZM27.3269 35.8077C27.3269 35.2486 27.1611 34.702 26.8505 34.2371C26.5399 33.7723 26.0984 33.4099 25.5818 33.196C25.0653 32.982 24.4969 32.926 23.9485 33.0351C23.4001 33.1442 22.8964 33.4134 22.5011 33.8088C22.1057 34.2041 21.8365 34.7078 21.7274 35.2562C21.6183 35.8046 21.6743 36.373 21.8883 36.8895C22.1022 37.4061 22.4646 37.8476 22.9295 38.1582C23.3943 38.4688 23.9409 38.6346 24.5 38.6346C25.2498 38.6346 25.9688 38.3368 26.4989 37.8066C27.0291 37.2765 27.3269 36.5574 27.3269 35.8077ZM34.8654 14.1346C34.8654 11.3855 33.7733 8.74907 31.8294 6.80518C29.8856 4.8613 27.2491 3.76923 24.5 3.76923C20.009 3.77413 15.641 5.23733 12.0532 7.93867C8.46539 10.64 5.85186 14.4334 4.60579 18.7481C3.35973 23.0629 3.54853 27.6655 5.14379 31.8637C6.73904 36.0619 9.65447 39.6285 13.4515 42.0269C12.6556 40.3819 12.2448 38.5774 12.25 36.75C12.25 33.5011 13.5406 30.3853 15.838 28.0879C18.1353 25.7906 21.2511 24.5 24.5 24.5C27.2491 24.5 29.8856 23.4079 31.8294 21.4641C33.7733 19.5202 34.8654 16.8837 34.8654 14.1346Z" fill="#1F487E"/>
</svg>
