<svg width="49" height="43" viewBox="0 0 49 43" fill="none" xmlns="http://www.w3.org/2000/svg">
<path d="M2.37581 42.7956C1.74305 42.793 1.13727 42.5399 0.691732 42.0921C0.246195 41.6444 -0.00260401 41.0386 6.89419e-05 40.408L0.161323 2.36746C0.163995 1.7369 0.417921 1.13323 0.867239 0.68925C1.31656 0.245273 1.92446 -0.00264388 2.55722 3.83778e-05L20.2457 0.0750196L24.9971 4.85031L43.096 4.92703C43.7287 4.92972 44.3345 5.18278 44.78 5.63055C45.2256 6.07832 45.4744 6.68412 45.4717 7.31468L45.4415 14.4473L4.88257 14.2754L4.78182 38.0412L9.63404 19.0506L49 19.2175L43.3956 41.1697C43.2642 41.6833 42.9643 42.1384 42.5437 42.4627C42.123 42.787 41.6056 42.9619 41.0738 42.9597L2.37581 42.7956Z" fill="#1F487E"/>
</svg>
