<svg width="18" height="18" viewBox="0 0 18 18" fill="none" xmlns="http://www.w3.org/2000/svg">
<path d="M5.625 3.9375V3.375C5.625 3.07663 5.74353 2.79048 5.9545 2.5795C6.16548 2.36853 6.45163 2.25 6.75 2.25H7.3125C7.46168 2.25 7.60476 2.30926 7.71025 2.41475C7.81574 2.52024 7.875 2.66332 7.875 2.8125C7.875 2.96168 7.81574 3.10476 7.71025 3.21025C7.60476 3.31574 7.46168 3.375 7.3125 3.375H6.75V3.9375C6.75 4.08668 6.69074 4.22976 6.58525 4.33525C6.47976 4.44074 6.33668 4.5 6.1875 4.5C6.03832 4.5 5.89524 4.44074 5.78975 4.33525C5.68426 4.22976 5.625 4.08668 5.625 3.9375ZM10.125 3.375H11.25C11.3992 3.375 11.5423 3.31574 11.6477 3.21025C11.7532 3.10476 11.8125 2.96168 11.8125 2.8125C11.8125 2.66332 11.7532 2.52024 11.6477 2.41475C11.5423 2.30926 11.3992 2.25 11.25 2.25H10.125C9.97582 2.25 9.83274 2.30926 9.72725 2.41475C9.62176 2.52024 9.5625 2.66332 9.5625 2.8125C9.5625 2.96168 9.62176 3.10476 9.72725 3.21025C9.83274 3.31574 9.97582 3.375 10.125 3.375ZM14.625 2.25H14.0625C13.9133 2.25 13.7702 2.30926 13.6648 2.41475C13.5593 2.52024 13.5 2.66332 13.5 2.8125C13.5 2.96168 13.5593 3.10476 13.6648 3.21025C13.7702 3.31574 13.9133 3.375 14.0625 3.375H14.625V3.9375C14.625 4.08668 14.6843 4.22976 14.7898 4.33525C14.8952 4.44074 15.0383 4.5 15.1875 4.5C15.3367 4.5 15.4798 4.44074 15.5852 4.33525C15.6907 4.22976 15.75 4.08668 15.75 3.9375V3.375C15.75 3.07663 15.6315 2.79048 15.4205 2.5795C15.2095 2.36853 14.9234 2.25 14.625 2.25ZM15.1875 6.1875C15.0383 6.1875 14.8952 6.24676 14.7898 6.35225C14.6843 6.45774 14.625 6.60082 14.625 6.75V7.875C14.625 8.02418 14.6843 8.16726 14.7898 8.27275C14.8952 8.37824 15.0383 8.4375 15.1875 8.4375C15.3367 8.4375 15.4798 8.37824 15.5852 8.27275C15.6907 8.16726 15.75 8.02418 15.75 7.875V6.75C15.75 6.60082 15.6907 6.45774 15.5852 6.35225C15.4798 6.24676 15.3367 6.1875 15.1875 6.1875ZM12.375 6.75V14.625C12.375 14.9234 12.2565 15.2095 12.0455 15.4205C11.8345 15.6315 11.5484 15.75 11.25 15.75H3.375C3.07663 15.75 2.79048 15.6315 2.5795 15.4205C2.36853 15.2095 2.25 14.9234 2.25 14.625V6.75C2.25 6.45163 2.36853 6.16548 2.5795 5.9545C2.79048 5.74353 3.07663 5.625 3.375 5.625H11.25C11.5484 5.625 11.8345 5.74353 12.0455 5.9545C12.2565 6.16548 12.375 6.45163 12.375 6.75ZM11.25 6.75H3.375V14.625H11.25V6.75ZM15.1875 10.125C15.0383 10.125 14.8952 10.1843 14.7898 10.2898C14.6843 10.3952 14.625 10.5383 14.625 10.6875V11.25H14.0625C13.9133 11.25 13.7702 11.3093 13.6648 11.4148C13.5593 11.5202 13.5 11.6633 13.5 11.8125C13.5 11.9617 13.5593 12.1048 13.6648 12.2102C13.7702 12.3157 13.9133 12.375 14.0625 12.375H14.625C14.9234 12.375 15.2095 12.2565 15.4205 12.0455C15.6315 11.8345 15.75 11.5484 15.75 11.25V10.6875C15.75 10.5383 15.6907 10.3952 15.5852 10.2898C15.4798 10.1843 15.3367 10.125 15.1875 10.125Z" fill="white"/>
</svg>
