<svg width="49" height="49" viewBox="0 0 49 49" fill="none" xmlns="http://www.w3.org/2000/svg">
<path d="M27.3748 13.2043C27.3724 13.7635 27.2043 14.3093 26.8917 14.7729C26.5791 15.2364 26.1361 15.5969 25.6186 15.8087C25.1012 16.0204 24.5326 16.074 23.9847 15.9626C23.4368 15.8512 22.9342 15.5798 22.5405 15.1828C22.1468 14.7858 21.8797 14.2809 21.773 13.7321C21.6662 13.1833 21.7246 12.6151 21.9408 12.0995C22.1569 11.5838 22.5211 11.1439 22.9873 10.8352C23.4535 10.5266 24.0008 10.3631 24.5599 10.3655C25.3096 10.3686 26.0274 10.6695 26.5553 11.2019C27.0832 11.7343 27.378 12.4546 27.3748 13.2043ZM48.9998 24.6038C48.9792 29.4494 47.5223 34.1801 44.8131 38.1977C42.104 42.2152 38.2643 45.3392 33.7797 47.1745C29.2951 49.0099 24.3669 49.4742 19.6185 48.5087C14.87 47.5432 10.5144 45.1914 7.10259 41.7505C3.69075 38.3096 1.37588 33.9343 0.450699 29.1778C-0.474485 24.4213 0.0315739 19.4972 1.90488 15.0283C3.77819 10.5595 6.93461 6.74643 10.975 4.07144C15.0154 1.39644 19.7582 -0.0203644 24.6038 0.000176077C31.0977 0.0401562 37.3111 2.65176 41.8836 7.26313C46.456 11.8745 49.0148 18.1098 48.9998 24.6038ZM27.2789 35.8195C27.2813 35.2604 27.1178 34.7132 26.8092 34.247C26.5005 33.7808 26.0606 33.4166 25.5449 33.2004C25.0293 32.9843 24.4611 32.9259 23.9123 33.0326C23.3635 33.1394 22.8586 33.4065 22.4616 33.8002C22.0646 34.1938 21.7932 34.6964 21.6818 35.2443C21.5704 35.7922 21.624 36.3608 21.8358 36.8783C22.0475 37.3957 22.408 37.8388 22.8715 38.1514C23.3351 38.464 23.881 38.6321 24.4401 38.6344C25.1898 38.6376 25.9101 38.3428 26.4425 37.8149C26.9749 37.287 27.2758 36.5693 27.2789 35.8195ZM34.9092 14.1786C34.9209 11.4296 33.84 8.78848 31.9044 6.83637C29.9687 4.88426 27.3369 3.78103 24.5879 3.76937C20.0968 3.75524 15.7227 5.1999 12.1235 7.88602C8.52425 10.5721 5.89467 14.3544 4.63033 18.6638C3.36599 22.9732 3.53527 27.5767 5.11272 31.7816C6.69016 35.9865 9.59045 39.5654 13.3772 41.9799C12.5884 40.3315 12.1852 38.5252 12.1982 36.6979C12.2119 33.449 13.5158 30.3387 15.8228 28.0511C18.1298 25.7636 21.2511 24.4862 24.5 24.5C27.249 24.5116 29.8901 23.4307 31.8422 21.4951C33.7943 19.5595 34.8976 16.9276 34.9092 14.1786Z" fill="#1F487E"/>
</svg>
